# xmcd
#
# Track frame offsets: 
#        150
#        12775
#        25594
#        44235
#        54165
#        65755
#        83136
#        96642
#        112400
#        126951
#        145942
#
# Disc length: 2138 seconds
#
# Revision: 0
# Processed by: cddbd v1.5.2PL0 Copyright (c) Steve Scherf et al.
# Submitted via: ExactAudioCopy v0.99pb4
#
DISCID=a008580b
DTITLE=The Grabb Family - The Locket
DYEAR=1900
DGENRE=Christian Rock
TTITLE0=The Locket
TTITLE1=MeekAndMild
TTITLE2=Simeon
TTITLE3=Kentucky Christmas
TTITLE4=Ordinary Christman
TTITLE5=Your First Christman In Heaven
TTITLE6=Christman in the country
TTITLE7=Its Christmas once again
TTITLE8=All I want for christmas
TTITLE9=Christman there's a coming
TTITLE10=The least that I can do
EXTD=
EXTT0=
EXTT1=
EXTT2=
EXTT3=
EXTT4=
EXTT5=
EXTT6=
EXTT7=
EXTT8=
EXTT9=
EXTT10=
PLAYORDER=
